<svg xmlns="http://www.w3.org/2000/svg" version="1.1" xmlnsXlink="http://www.w3.org/1999/xlink" xmlnsSvgjs="http://svgjs.dev/svgjs" width="150" height="80" viewBox="0 0 1000 600">
<rect width="1000" height="600" x="0" y="0" fill="transparent"/><g><rect width="333.3333333333333" height="333.3333333333333" rx="13.333333333333334" ry="13.333333333333334" y="121.17350512419549" fill="#3d550c" transform="matrix(1.263247885565861,0,0,1.263247885565861,0,-63.613490654652026)" x="98.95128631591797"/><path d="M180.2785336153195 323.93544347912655L180.2785336153195 323.93544347912655Q180.2785336153195 313.0113134480729 174.3458468099431 307.19271677356915Q168.44168253728492 301.3741200990654 153.01099233676268 295.8692712844613Q137.55177960352233 290.36442246985735 129.3943352461298 284.2891230008902Q121.20836835601912 278.213823531923 117.15816871004101 270.4556946325846Q113.07944653134474 262.6690432005281 113.07944653134474 252.65763421645548L113.07944653134474 252.65763421645548Q113.07944653134474 235.2874117910987 124.65959481491595 224.07805643286352Q136.2682656312053 212.84017854191018 155.0075696270336 212.84017854191018L155.0075696270336 212.84017854191018Q167.84270935020362 212.84017854191018 177.88264086699442 218.60173015097766Q187.89404985106708 224.36328176004508 193.31333106751666 234.60287100586297Q198.73261228396623 244.8139377189627 198.73261228396623 257.05010425505145L198.73261228396623 257.05010425505145L180.2785336153195 257.05010425505145Q180.2785336153195 243.53042374664568 173.74687362286187 236.1145652399252Q167.24373616312238 228.67018420048657 155.0075696270336 228.67018420048657L155.0075696270336 228.67018420048657Q143.88378186695286 228.67018420048657 137.75143733254941 234.88809633304453Q131.64761533086408 241.10600846560246 131.64761533086408 252.34388635655583L131.64761533086408 252.34388635655583Q131.64761533086408 261.5851869572382 138.2648429214762 267.77457655707803Q144.88207051208832 273.99248868963593 158.71549888039382 278.92688684987684L158.71549888039382 278.92688684987684Q180.2785336153195 286.0289974966977 189.5483567487201 296.46824447154256Q198.81817988212072 306.90749144638767 198.81817988212072 323.73578575009947L198.81817988212072 323.73578575009947Q198.81817988212072 341.4768011007923 187.2950766639858 352.1727508701007Q175.7719734458509 362.8401781066908 155.92029067401455 362.8401781066908L155.92029067401455 362.8401781066908Q143.170718548999 362.8401781066908 132.38920118153612 357.2782842266505Q121.60768381407328 351.7163903466102 115.44681674695167 341.6479362971012Q109.28594967983004 331.5509597148741 109.28594967983004 318.51616226267697L109.28594967983004 318.51616226267697L127.74002834847676 318.51616226267697Q127.74002834847676 332.06436530380086 135.29849951878802 339.59431394139403Q142.88549322181743 347.09574004626893 155.92029067401455 347.09574004626893L155.92029067401455 347.09574004626893Q168.04236707923073 347.09574004626893 174.14618908091603 340.87782791371103Q180.2785336153195 334.659915781153 180.2785336153195 323.93544347912655ZM308.2306153889658 214.8367558321811L308.2306153889658 230.69528402347564L269.81076381761017 230.69528402347564L269.81076381761017 360.84360081642L251.47077527983606 360.84360081642L251.47077527983606 230.69528402347564L213.16501383935298 230.69528402347564L213.16501383935298 214.8367558321811L308.2306153889658 214.8367558321811ZM421.9499533362525 274.1065788205086L421.9499533362525 300.68957931382965Q421.9499533362525 330.5526710697386 409.20038121123696 346.69642458821477Q396.47933161893957 362.8401781066908 373.0052871918974 362.8401781066908L373.0052871918974 362.8401781066908Q350.4439638118363 362.8401781066908 337.3521212942028 347.15278511170527Q324.26027877656935 331.4653921167196 323.7753957203607 302.771724202255L323.7753957203607 302.771724202255L323.7753957203607 275.3045251946711Q323.7753957203607 246.04040662584342 336.6961030416852 229.44029258387678Q349.6453328957279 212.84017854191018 372.80562946287034 212.84017854191018L372.80562946287034 212.84017854191018Q395.85183589914004 212.84017854191018 408.74402068774646 228.7272292659229Q421.63620547635287 244.61427998993562 421.9499533362525 274.1065788205086L421.9499533362525 274.1065788205086ZM403.5814422657603 302.4864988750735L403.5814422657603 275.104867465644Q403.5814422657603 251.9445708985016 396.02297109544907 240.67817047483013Q388.43597739241966 229.38324751844047 372.80562946287034 229.38324751844047L372.80562946287034 229.38324751844047Q357.6601645895296 229.38324751844047 349.90203569019127 240.82078313842092Q342.1153842581348 252.25831875840132 342.0298166599804 274.5058942785628L342.0298166599804 274.5058942785628L342.0298166599804 300.68957931382965Q342.0298166599804 323.0512449648637 349.7879455593187 334.7740059120257Q357.5745969913752 346.4967668591877 373.0052871918974 346.4967668591877Q388.43597739241966 346.4967668591877 395.85183589914004 335.6867269590067Q403.2962169385787 324.84816452610755 403.5814422657603 302.4864988750735L403.5814422657603 302.4864988750735Z " fill="#ecf87f" transform="matrix(1.263247885565861,0,0,1.263247885565861,0,-63.613490654652026)"/><path d="M575.2528352170323 214.70377681474034L575.4049650250594 237.71341027884117Q570.4227138121714 236.76259897867172 564.679813559148 236.76259897867172L564.679813559148 236.76259897867172Q546.5003014999079 236.76259897867172 539.27413561862 256.69160383022347L539.27413561862 256.69160383022347L539.27413561862 360.17790574066714L515.6179504704039 360.17790574066714L515.6179504704039 215.5024583068827L538.6275839345049 215.5024583068827L539.0079084545725 230.22101723350588Q548.5160214562671 212.84018666640821 565.8968520233648 212.84018666640821L565.8968520233648 212.84018666640821Q571.525654920368 212.84018666640821 575.2528352170323 214.70377681474034L575.2528352170323 214.70377681474034ZM692.6590145619567 360.17790574066714L668.0520181135712 360.17790574066714Q665.9222008011916 355.4999141438334 664.9713895010221 344.3944381578541L664.9713895010221 344.3944381578541Q652.4206803387854 362.84017738114164 632.8720000073013 362.84017738114164L632.8720000073013 362.84017738114164Q613.2092223197969 362.84017738114164 602.1798112378312 351.81076629917595Q591.1504001558656 340.78135521721026 591.1504001558656 320.73825300963813L591.1504001558656 320.73825300963813Q591.1504001558656 298.67943084570675 606.1351862465363 285.7103647113953Q621.1199723372068 272.74129857708397 647.17220196185 272.4750714130365L647.17220196185 272.4750714130365L664.5530325289476 272.4750714130365L664.5530325289476 257.0719283502913Q664.5530325289476 244.1028622159799 658.810132275924 238.62618912700387Q653.0672320229006 233.1495160380278 641.3152043528061 233.1495160380278L641.3152043528061 233.1495160380278Q630.6280853389014 233.1495160380278 623.9343737857084 239.50093552315977Q617.2406622325154 245.85235500829177 617.2406622325154 255.62669517403376L617.2406622325154 255.62669517403376L593.5844770842994 255.62669517403376Q593.5844770842994 244.52121918805452 600.1260588294653 234.44261940625825Q606.6676405746312 224.32598717245526 617.7731165606103 218.58308691943174Q628.8785925465896 212.84018666640821 642.4942103650162 212.84018666640821L642.4942103650162 212.84018666640821Q664.7051623369747 212.84018666640821 676.2670277470353 223.8695977483739Q687.8288931570959 234.89900883033962 688.0951203211433 256.0070196941015L688.0951203211433 256.0070196941015L688.0951203211433 329.0293275471157Q688.2472501291704 345.72557397809135 692.6590145619567 358.04808842828754L692.6590145619567 358.04808842828754L692.6590145619567 360.17790574066714ZM636.4850829479452 341.31380954530516L636.4850829479452 341.31380954530516Q645.1945144574975 341.31380954530516 653.0672320229006 336.52172059245106Q660.9779820403104 331.6915991875902 664.5530325289476 324.4654333063023L664.5530325289476 324.4654333063023L664.5530325289476 289.9699993361545L651.2036418745685 289.9699993361545Q634.3552656355656 290.23622650020195 624.5809254698237 297.53845728550334Q614.8446177560884 304.84068807080473 614.8446177560884 317.92385156113653L614.8446177560884 317.92385156113653Q614.8446177560884 330.20833355932587 619.7888365169696 335.76107155231546Q624.7330552778508 341.31380954530516 636.4850829479452 341.31380954530516Z " fill="#226c3b" transform="matrix(1.263247885565861,0,0,1.263247885565861,0,-63.613490654652026)"/></g>
</svg>